<?xml version="1.0" encoding="UTF-8" standalone="no"?> <!-- Created with Vectornator for iOS (http://vectornator.io/) --><!DOCTYPE svg PUBLIC "-//W3C//DTD SVG 1.1//EN" "http://www.w3.org/Graphics/SVG/1.1/DTD/svg11.dtd">
<svg height="100%" style="fill-rule:nonzero;clip-rule:evenodd;stroke-linecap:round;stroke-linejoin:round;" xmlns:xlink="http://www.w3.org/1999/xlink" xmlns="http://www.w3.org/2000/svg" xml:space="preserve" width="100%" xmlns:vectornator="http://vectornator.io" version="1.1" viewBox="0 0 2560 1440">
<metadata>
<vectornator:setting key="DimensionsVisible" value="1"/>
<vectornator:setting key="PencilOnly" value="0"/>
<vectornator:setting key="SnapToPoints" value="0"/>
<vectornator:setting key="OutlineMode" value="0"/>
<vectornator:setting key="CMYKEnabledKey" value="0"/>
<vectornator:setting key="RulersVisible" value="1"/>
<vectornator:setting key="SnapToEdges" value="0"/>
<vectornator:setting key="GuidesVisible" value="1"/>
<vectornator:setting key="DisplayWhiteBackground" value="0"/>
<vectornator:setting key="doHistoryDisabled" value="0"/>
<vectornator:setting key="SnapToGuides" value="1"/>
<vectornator:setting key="TimeLapseWatermarkDisabled" value="0"/>
<vectornator:setting key="Units" value="Points"/>
<vectornator:setting key="DynamicGuides" value="0"/>
<vectornator:setting key="IsolateActiveLayer" value="0"/>
<vectornator:setting key="SnapToGrid" value="0"/>
</metadata>
<defs/>
<g id="Layer 1" vectornator:layerName="Layer 1">
<path d="M0.705598+0.818514L2560.87+0.818514L2560.87+1440.64L0.705598+1440.64L0.705598+0.818514Z" opacity="1" fill="#ffffff"/>
<path d="M2168.5+197.823L2209.45+197.823L2209.45+204.194L2168.5+204.194L2168.5+197.823Z" opacity="1" fill="#d6f3ff"/>
<path d="M-19.7787+1112.97C-20.5027+1044.21-40.5446+949.141+29.8262+921.638C103.097+893.001+187.613+977.481+271.461+999.138C329.89+1014.23+392.269+999.81+444.706+1028.8C499.914+1059.32+526.965+1112.06+561.515+1159.48C608.092+1223.41+686.578+1283.32+681.123+1353.31C675.503+1425.4+615.632+1495.2+534.085+1511.39C453.598+1527.36+376.806+1450.3+292.108+1430.51C231.091+1416.25+163.84+1445.71+111.528+1412.63C59.0239+1379.43+55.7601+1317.85+33.4619+1266.96C10.7626+1215.16-19.221+1165.94-19.7787+1112.97Z" fill-rule="evenodd" fill="#ffe175" opacity="1"/>
<path d="M2441.37+1145.44C2443.27+1141.56+2444.94+1137.48+2446.39+1133.2C2462.98+1084.23+2437.89+1025.58+2385.05+1011.43C2379.34+939.684+2328.93+890.474+2272+882.078C2206.84+872.466+2147.14+913.861+2127.28+979.661C2103.33+971.182+2080+972.213+2058.02+985.058C2048.05+989.671+2038.92+996.48+2030.74+1005.43C2018.71+1018.58+2010.91+1035.17+2007.72+1052.67C2003.01+1053.41+1998.38+1054.15+1994.01+1055.72C1968.56+1064.85+1952.49+1083.64+1948.09+1111.94C1945.34+1129.57+1950.88+1147.15+1953.96+1154.26C1966.16+1182.33+1994.44+1198.25+2023.16+1194.03C2024.59+1193.82+2026.67+1194.47+2027.9+1195.5C2029.42+1240.37+2051.21+1280.05+2083.89+1302.71C2136.32+1339.08+2203.79+1327.88+2246.35+1278C2264.58+1296.66+2286.29+1305.72+2311.79+1302.43C2337.13+1299.16+2356.82+1285.17+2371.18+1262.43C2377.81+1264.21+2384.11+1266.79+2390.61+1267.49C2416.08+1270.28+2436.77+1260.15+2451.94+1237.25C2457.75+1228.48+2463.24+1217.12+2463.24+1197.21C2463.24+1176.68+2455.09+1157.98+2441.37+1145.44Z" opacity="1" fill="#c7ede6"/>
<path d="M2366.42+1103.67C2366.42+1103.67+2440.09+1103.67+2440.54+1103.67C2457.55+1103.67+2471.34+1089.88+2471.34+1072.87C2471.34+1058.02+2460.84+1045.64+2446.87+1042.71C2447.02+1041.42+2447.14+1040.1+2447.14+1038.76C2447.14+1021.14+2432.86+1006.86+2415.24+1006.86C2404.83+1006.86+2395.62+1011.86+2389.8+1019.56C2388.31+999.947+2370.79+984.818+2350.29+987.324C2335.3+989.159+2322.9+1000.74+2320.15+1015.59C2319.26+1020.35+2319.35+1024.97+2320.23+1029.31C2316.22+1024.98+2310.5+1022.25+2304.12+1022.25C2292.46+1022.25+2282.95+1031.33+2282.19+1042.8C2276.9+1041.63+2271.14+1041.71+2265.07+1043.99C2253.48+1048.34+2245.22+1059.25+2244.73+1071.63C2244.05+1089.21+2258.09+1103.67+2275.51+1103.67C2276.83+1103.67+2281.48+1103.67+2282.56+1103.67L2346.52+1103.67" opacity="1" fill="#fdfcef"/>
<path d="M2440.53+1106.84L2366.42+1106.84C2364.67+1106.84+2363.25+1105.42+2363.25+1103.67C2363.25+1101.93+2364.67+1100.51+2366.42+1100.51L2440.53+1100.51C2455.78+1100.51+2468.18+1088.11+2468.18+1072.87C2468.18+1059.85+2458.95+1048.48+2446.22+1045.82C2444.61+1045.49+2443.53+1043.97+2443.73+1042.34C2443.87+1041.16+2443.97+1039.97+2443.97+1038.77C2443.97+1022.92+2431.08+1010.03+2415.24+1010.03C2406.17+1010.03+2397.82+1014.2+2392.32+1021.48C2391.53+1022.53+2390.18+1022.98+2388.9+1022.61C2387.64+1022.23+2386.74+1021.13+2386.64+1019.82C2385.98+1011.14+2381.74+1002.99+2374.99+997.46C2368.16+991.86+2359.53+989.38+2350.67+990.462C2337.03+992.133+2325.75+1002.7+2323.25+1016.16C2322.47+1020.37+2322.5+1024.58+2323.33+1028.68C2323.61+1030.07+2322.94+1031.48+2321.68+1032.12C2320.42+1032.78+2318.88+1032.51+2317.91+1031.46C2314.3+1027.57+2309.39+1025.42+2304.12+1025.42C2294.23+1025.42+2286+1033.15+2285.35+1043.01C2285.29+1043.94+2284.83+1044.78+2284.09+1045.34C2283.36+1045.89+2282.41+1046.08+2281.51+1045.9C2276.21+1044.72+2271.2+1045.06+2266.18+1046.95C2255.67+1050.9+2248.33+1060.87+2247.9+1071.76C2247.61+1079.36+2250.34+1086.56+2255.6+1092.03C2260.86+1097.49+2267.94+1100.51+2275.52+1100.51L2346.53+1100.51C2348.28+1100.51+2349.69+1101.93+2349.69+1103.67C2349.69+1105.42+2348.28+1106.84+2346.53+1106.84L2275.51+1106.84C2266.18+1106.84+2257.49+1103.14+2251.03+1096.42C2244.57+1089.7+2241.21+1080.85+2241.57+1071.51C2242.09+1058.12+2251.09+1045.86+2263.95+1041.03C2268.99+1039.14+2274.21+1038.51+2279.5+1039.15C2281.88+1027.66+2292.09+1019.09+2304.11+1019.09C2308.42+1019.09+2312.63+1020.23+2316.35+1022.3C2316.35+1019.88+2316.57+1017.44+2317.02+1015.02C2320.02+998.859+2333.54+986.185+2349.89+984.191C2360.49+982.913+2370.82+985.868+2378.98+992.556C2385.31+997.739+2389.79+1004.84+2391.83+1012.67C2398.21+1006.91+2406.44+1003.7+2415.22+1003.7C2434.56+1003.7+2450.29+1019.43+2450.29+1038.77C2450.29+1039.29+2450.28+1039.81+2450.25+1040.32C2464.45+1044.57+2474.49+1057.83+2474.49+1072.88C2474.51+1091.6+2459.27+1106.84+2440.53+1106.84Z" opacity="1" fill="#472b29"/>
<path d="M2348.56+1035.81C2337.17+1035.06+2327.36+1042.94+2326.66+1053.39C2326.57+1054.69+2326.62+1055.96+2326.81+1057.21C2324.62+1054.73+2321.36+1053.04+2317.63+1052.8C2310.79+1052.35+2304.89+1056.87+2304.03+1063.01C2302.78+1062.67+2301.49+1062.44+2300.14+1062.35C2290.17+1061.7+2281.59+1068.58+2280.98+1077.73" opacity="1" fill="#fdfcef"/>
<path d="M2280.98+1079.31C2280.95+1079.31+2280.91+1079.31+2280.88+1079.3C2280+1079.24+2279.35+1078.49+2279.4+1077.62C2280.07+1067.61+2289.31+1060.01+2300.25+1060.77C2301.11+1060.82+2301.95+1060.93+2302.82+1061.1C2304.55+1055+2310.8+1050.73+2317.73+1051.22C2320.41+1051.38+2322.92+1052.22+2325.06+1053.62C2325.07+1053.5+2325.07+1053.4+2325.08+1053.28C2325.84+1041.97+2336.39+1033.44+2348.67+1034.23C2349.54+1034.29+2350.2+1035.04+2350.14+1035.91C2350.09+1036.78+2349.43+1037.51+2348.46+1037.38C2337.91+1036.78+2328.88+1043.92+2328.24+1053.49C2328.16+1054.65+2328.21+1055.81+2328.38+1056.97C2328.49+1057.66+2328.12+1058.34+2327.49+1058.64C2326.85+1058.94+2326.11+1058.78+2325.64+1058.26C2323.6+1055.96+2320.72+1054.58+2317.53+1054.37C2311.56+1054.12+2306.35+1057.87+2305.6+1063.21C2305.54+1063.66+2305.29+1064.06+2304.91+1064.31C2304.54+1064.56+2304.08+1064.65+2303.63+1064.52C2302.4+1064.19+2301.23+1063.99+2300.06+1063.91C2291.09+1063.41+2283.13+1069.56+2282.57+1077.82C2282.5+1078.67+2281.81+1079.31+2280.98+1079.31Z" opacity="1" fill="#472b29"/>
<path d="M2453.01+1046.33C2442.3+1041.28+2429.92+1044.85+2425.35+1054.31C2424.78+1055.49+2424.37+1056.7+2424.09+1057.93" opacity="1" fill="#fdfcef"/>
<path d="M2424.09+1059.51C2423.97+1059.51+2423.85+1059.5+2423.73+1059.46C2422.89+1059.27+2422.35+1058.42+2422.54+1057.57C2422.86+1056.2+2423.33+1054.87+2423.93+1053.62C2428.86+1043.41+2442.22+1039.5+2453.69+1044.9C2454.48+1045.28+2454.82+1046.21+2454.45+1047C2454.07+1047.8+2453.13+1048.12+2452.34+1047.76C2442.42+1043.08+2430.96+1046.33+2426.78+1055C2426.28+1056.04+2425.89+1057.14+2425.63+1058.28C2425.46+1059.01+2424.81+1059.51+2424.09+1059.51Z" opacity="1" fill="#472b29"/>
<path d="M1998.15+1095.27L1934.94+1095.27C1933.2+1095.27+1931.78+1093.85+1931.78+1092.11C1931.78+1090.36+1933.2+1088.94+1934.94+1088.94L1998.15+1088.94C1999.9+1088.94+2001.31+1090.36+2001.31+1092.11C2001.31+1093.85+1999.9+1095.27+1998.15+1095.27ZM2016.3+1095.27L2007.19+1095.27C2005.45+1095.27+2004.03+1093.85+2004.03+1092.11C2004.03+1090.36+2005.45+1088.94+2007.19+1088.94L2016.3+1088.94C2018.05+1088.94+2019.47+1090.36+2019.47+1092.11C2019.47+1093.85+2018.06+1095.27+2016.3+1095.27ZM2041.85+1095.27L2025.81+1095.27C2024.07+1095.27+2022.65+1093.85+2022.65+1092.11C2022.65+1090.36+2024.07+1088.94+2025.81+1088.94L2041.86+1088.94C2043.61+1088.94+2045.02+1090.36+2045.02+1092.11C2045.02+1093.85+2043.61+1095.27+2041.85+1095.27ZM2041.85+1107.02L1981.26+1107.02C1979.51+1107.02+1978.09+1105.6+1978.09+1103.86C1978.09+1102.11+1979.51+1100.69+1981.26+1100.69L2041.85+1100.69C2043.6+1100.69+2045.02+1102.11+2045.02+1103.86C2045.02+1105.6+2043.61+1107.02+2041.85+1107.02ZM1970.35+1107.02L1966.69+1107.02C1964.94+1107.02+1963.53+1105.6+1963.53+1103.86C1963.53+1102.11+1964.94+1100.69+1966.69+1100.69L1970.35+1100.69C1972.09+1100.69+1973.51+1102.11+1973.51+1103.86C1973.51+1105.6+1972.1+1107.02+1970.35+1107.02ZM1955.37+1107.02L1946.19+1107.02C1944.45+1107.02+1943.03+1105.6+1943.03+1103.86C1943.03+1102.11+1944.45+1100.69+1946.19+1100.69L1955.37+1100.69C1957.12+1100.69+1958.53+1102.11+1958.53+1103.86C1958.53+1105.6+1957.12+1107.02+1955.37+1107.02ZM2012.94+1083.51L1981.26+1083.51C1979.52+1083.51+1978.1+1082.1+1978.1+1080.35C1978.1+1078.6+1979.52+1077.19+1981.26+1077.19L2012.94+1077.19C2014.69+1077.19+2016.11+1078.6+2016.11+1080.35C2016.11+1082.1+2014.69+1083.51+2012.94+1083.51ZM2012.94+1071.76L2005.02+1071.76C2003.27+1071.76+2001.86+1070.35+2001.86+1068.6C2001.86+1066.85+2003.27+1065.44+2005.02+1065.44L2012.94+1065.44C2014.69+1065.44+2016.11+1066.85+2016.11+1068.6C2016.11+1070.35+2014.69+1071.76+2012.94+1071.76ZM1992.34+1118.78L1981.26+1118.78C1979.52+1118.78+1978.1+1117.36+1978.1+1115.61C1978.1+1113.87+1979.52+1112.45+1981.26+1112.45L1992.34+1112.45C1994.09+1112.45+1995.5+1113.87+1995.5+1115.61C1995.5+1117.36+1994.09+1118.78+1992.34+1118.78ZM2333.26+929.686L2270.05+929.686C2268.3+929.686+2266.89+928.269+2266.89+926.522C2266.89+924.776+2268.3+923.359+2270.05+923.359L2333.26+923.359C2335+923.359+2336.42+924.776+2336.42+926.522C2336.42+928.269+2335.01+929.686+2333.26+929.686ZM2351.41+929.686L2342.3+929.686C2340.55+929.686+2339.13+928.269+2339.13+926.522C2339.13+924.776+2340.55+923.359+2342.3+923.359L2351.41+923.359C2353.16+923.359+2354.57+924.776+2354.57+926.522C2354.57+928.269+2353.16+929.686+2351.41+929.686ZM2376.96+929.686L2360.92+929.686C2359.17+929.686+2357.76+928.269+2357.76+926.522C2357.76+924.776+2359.17+923.359+2360.92+923.359L2376.97+923.359C2378.71+923.359+2380.13+924.776+2380.13+926.522C2380.13+928.269+2378.71+929.686+2376.96+929.686ZM2364.2+906.179L2303.6+906.179C2301.85+906.179+2300.43+904.762+2300.43+903.016C2300.43+901.269+2301.85+899.852+2303.6+899.852L2364.2+899.852C2365.94+899.852+2367.36+901.269+2367.36+903.016C2367.36+904.762+2365.94+906.179+2364.2+906.179ZM2292.69+906.179L2289.03+906.179C2287.29+906.179+2285.87+904.762+2285.87+903.016C2285.87+901.269+2287.29+899.852+2289.03+899.852L2292.69+899.852C2294.44+899.852+2295.85+901.269+2295.85+903.016C2295.85+904.762+2294.44+906.179+2292.69+906.179ZM2277.71+906.179L2268.53+906.179C2266.79+906.179+2265.37+904.762+2265.37+903.016C2265.37+901.269+2266.79+899.852+2268.53+899.852L2277.71+899.852C2279.45+899.852+2280.87+901.269+2280.87+903.016C2280.87+904.762+2279.46+906.179+2277.71+906.179ZM2348.04+917.936L2316.36+917.936C2314.61+917.936+2313.2+916.518+2313.2+914.772C2313.2+913.026+2314.61+911.608+2316.36+911.608L2348.04+911.608C2349.79+911.608+2351.21+913.026+2351.21+914.772C2351.21+916.518+2349.8+917.936+2348.04+917.936Z" opacity="1" fill="#ffffff"/>
<path d="M2348.04+906.179L2340.12+906.179C2338.37+906.179+2336.96+904.762+2336.96+903.016C2336.96+901.269+2338.37+899.852+2340.12+899.852L2348.04+899.852C2349.79+899.852+2351.21+901.269+2351.21+903.016C2351.21+904.762+2349.8+906.179+2348.04+906.179ZM2307.19+917.936L2296.11+917.936C2294.37+917.936+2292.95+916.518+2292.95+914.772C2292.95+913.026+2294.37+911.608+2296.11+911.608L2307.19+911.608C2308.94+911.608+2310.36+913.026+2310.36+914.772C2310.36+916.518+2308.94+917.936+2307.19+917.936Z" opacity="1" fill="#ffffff"/>
<path d="M2316.52+1221.23L2111.24+1221.23C2094.54+1221.23+2080.87+1207.57+2080.87+1190.87L2080.87+1105.79C2080.87+1089.09+2094.53+1075.42+2111.24+1075.42L2316.52+1075.42C2333.22+1075.42+2346.89+1089.08+2346.89+1105.79L2346.89+1190.87C2346.89+1207.57+2333.22+1221.23+2316.52+1221.23Z" opacity="1" fill="#cbc9bc"/>
<path d="M2316.52+1225.66L2111.24+1225.66C2092.05+1225.66+2076.44+1210.05+2076.44+1190.87L2076.44+1105.79C2076.44+1086.61+2092.05+1071+2111.24+1071L2316.52+1071C2335.7+1071+2351.31+1086.61+2351.31+1105.79L2351.31+1190.87C2351.31+1210.06+2335.7+1225.66+2316.52+1225.66ZM2111.24+1079.86C2096.94+1079.86+2085.3+1091.49+2085.3+1105.79L2085.3+1190.87C2085.3+1205.17+2096.93+1216.8+2111.24+1216.8L2316.52+1216.8C2330.82+1216.8+2342.45+1205.17+2342.45+1190.87L2342.45+1105.79C2342.45+1091.49+2330.82+1079.86+2316.52+1079.86C2316.52+1079.86+2111.24+1079.86+2111.24+1079.86Z" opacity="1" fill="#472b29"/>
<path d="M2251.16+1200.06L2149.58+1200.06C2142.82+1200.06+2137.28+1194.52+2137.28+1187.76L2137.28+1183.57C2137.28+1176.81+2142.82+1171.27+2149.58+1171.27L2278.18+1171.27C2284.95+1171.27+2290.48+1176.81+2290.48+1183.57L2290.48+1187.77C2290.48+1194.53+2284.95+1200.07+2278.18+1200.07" opacity="1" fill="#e5e3d0"/>
<path d="M2278.17+1202.12C2277.04+1202.12+2276.12+1201.2+2276.12+1200.07C2276.12+1198.94+2277.04+1198.01+2278.17+1198.01C2283.83+1198.01+2288.42+1193.41+2288.42+1187.77L2288.42+1183.57C2288.42+1177.92+2283.83+1173.33+2278.17+1173.33L2149.57+1173.33C2143.92+1173.33+2139.33+1177.93+2139.33+1183.57L2139.33+1187.76C2139.33+1193.41+2143.92+1198.01+2149.57+1198.01L2251.16+1198.01C2252.3+1198.01+2253.22+1198.93+2253.22+1200.06C2253.22+1201.19+2252.29+1202.12+2251.16+1202.12L2149.57+1202.12C2141.66+1202.12+2135.22+1195.67+2135.22+1187.75L2135.22+1183.57C2135.22+1175.66+2141.66+1169.21+2149.57+1169.21L2278.17+1169.21C2286.09+1169.21+2292.53+1175.66+2292.53+1183.57L2292.53+1187.76C2292.53+1195.68+2286.09+1202.12+2278.17+1202.12Z" opacity="1" fill="#472b29"/>
<path d="M2260.81+1202.12L2259.67+1202.12C2258.53+1202.12+2257.62+1201.2+2257.62+1200.07C2257.62+1198.94+2258.54+1198.01+2259.67+1198.01L2260.81+1198.01C2261.95+1198.01+2262.87+1198.94+2262.87+1200.07C2262.87+1201.2+2261.95+1202.12+2260.81+1202.12Z" opacity="1" fill="#472b29"/>
<path d="M2121.86+1120.06L2113.57+1120.06C2107.94+1120.06+2103.33+1115.45+2103.33+1109.81L2103.33+1101.52C2103.33+1095.89+2107.93+1091.28+2113.57+1091.28L2121.86+1091.28C2127.49+1091.28+2132.1+1095.89+2132.1+1101.52L2132.1+1109.81C2132.1+1115.45+2127.5+1120.06+2121.86+1120.06Z" opacity="1" fill="#e5e3d0"/>
<path d="M2121.87+1122.12L2113.58+1122.12C2106.79+1122.12+2101.28+1116.6+2101.28+1109.82L2101.28+1101.53C2101.28+1094.75+2106.79+1089.23+2113.58+1089.23L2121.87+1089.23C2128.65+1089.23+2134.17+1094.75+2134.17+1101.53L2134.17+1109.82C2134.16+1116.6+2128.64+1122.12+2121.87+1122.12ZM2113.57+1093.34C2109.06+1093.34+2105.39+1097.01+2105.39+1101.53L2105.39+1109.82C2105.39+1114.34+2109.06+1118.01+2113.57+1118.01L2121.86+1118.01C2126.37+1118.01+2130.04+1114.34+2130.04+1109.82L2130.04+1101.53C2130.04+1097.01+2126.37+1093.34+2121.86+1093.34L2113.57+1093.34Z" opacity="1" fill="#472b29"/>
<path d="M2160.48+1120.06L2152.19+1120.06C2146.56+1120.06+2141.95+1115.45+2141.95+1109.81L2141.95+1101.52C2141.95+1095.89+2146.56+1091.28+2152.19+1091.28L2160.48+1091.28C2166.11+1091.28+2170.73+1095.89+2170.73+1101.52L2170.73+1109.81C2170.73+1115.45+2166.11+1120.06+2160.48+1120.06Z" opacity="1" fill="#e5e3d0"/>
<path d="M2160.48+1122.12L2152.19+1122.12C2145.41+1122.12+2139.89+1116.6+2139.89+1109.82L2139.89+1101.53C2139.89+1094.75+2145.41+1089.23+2152.19+1089.23L2160.48+1089.23C2167.27+1089.23+2172.78+1094.75+2172.78+1101.53L2172.78+1109.82C2172.78+1116.6+2167.27+1122.12+2160.48+1122.12ZM2152.19+1093.34C2147.68+1093.34+2144.01+1097.01+2144.01+1101.53L2144.01+1109.82C2144.01+1114.34+2147.68+1118.01+2152.19+1118.01L2160.48+1118.01C2164.99+1118.01+2168.66+1114.34+2168.66+1109.82L2168.66+1101.53C2168.66+1097.01+2164.99+1093.34+2160.48+1093.34L2152.19+1093.34Z" opacity="1" fill="#472b29"/>
<path d="M2199.11+1120.06L2190.82+1120.06C2185.19+1120.06+2180.57+1115.45+2180.57+1109.81L2180.57+1101.52C2180.57+1095.89+2185.18+1091.28+2190.82+1091.28L2199.11+1091.28C2204.74+1091.28+2209.35+1095.89+2209.35+1101.52L2209.35+1109.81C2209.35+1115.45+2204.74+1120.06+2199.11+1120.06Z" opacity="1" fill="#e5e3d0"/>
<path d="M2199.11+1122.12L2190.82+1122.12C2184.03+1122.12+2178.52+1116.6+2178.52+1109.82L2178.52+1101.53C2178.52+1094.75+2184.03+1089.23+2190.82+1089.23L2199.11+1089.23C2205.89+1089.23+2211.41+1094.75+2211.41+1101.53L2211.41+1109.82C2211.41+1116.6+2205.89+1122.12+2199.11+1122.12ZM2190.82+1093.34C2186.31+1093.34+2182.64+1097.01+2182.64+1101.53L2182.64+1109.82C2182.64+1114.34+2186.31+1118.01+2190.82+1118.01L2199.11+1118.01C2203.62+1118.01+2207.29+1114.34+2207.29+1109.82L2207.29+1101.53C2207.29+1097.01+2203.62+1093.34+2199.11+1093.34L2190.82+1093.34Z" opacity="1" fill="#472b29"/>
<path d="M2237.73+1120.06L2229.44+1120.06C2223.81+1120.06+2219.2+1115.45+2219.2+1109.81L2219.2+1101.52C2219.2+1095.89+2223.8+1091.28+2229.44+1091.28L2237.73+1091.28C2243.36+1091.28+2247.97+1095.89+2247.97+1101.52L2247.97+1109.81C2247.97+1115.45+2243.36+1120.06+2237.73+1120.06Z" opacity="1" fill="#e5e3d0"/>
<path d="M2237.73+1122.12L2229.44+1122.12C2222.66+1122.12+2217.14+1116.6+2217.14+1109.82L2217.14+1101.53C2217.14+1094.75+2222.66+1089.23+2229.44+1089.23L2237.73+1089.23C2244.51+1089.23+2250.03+1094.75+2250.03+1101.53L2250.03+1109.82C2250.02+1116.6+2244.51+1122.12+2237.73+1122.12ZM2229.44+1093.34C2224.93+1093.34+2221.26+1097.01+2221.26+1101.53L2221.26+1109.82C2221.26+1114.34+2224.93+1118.01+2229.44+1118.01L2237.73+1118.01C2242.24+1118.01+2245.91+1114.34+2245.91+1109.82L2245.91+1101.53C2245.91+1097.01+2242.24+1093.34+2237.73+1093.34L2229.44+1093.34Z" opacity="1" fill="#472b29"/>
<path d="M2276.35+1120.06L2268.06+1120.06C2262.43+1120.06+2257.81+1115.45+2257.81+1109.81L2257.81+1101.52C2257.81+1095.89+2262.42+1091.28+2268.06+1091.28L2276.35+1091.28C2281.98+1091.28+2286.59+1095.89+2286.59+1101.52L2286.59+1109.81C2286.59+1115.45+2281.98+1120.06+2276.35+1120.06Z" opacity="1" fill="#e5e3d0"/>
<path d="M2276.35+1122.12L2268.06+1122.12C2261.28+1122.12+2255.76+1116.6+2255.76+1109.82L2255.76+1101.53C2255.76+1094.75+2261.28+1089.23+2268.06+1089.23L2276.35+1089.23C2283.14+1089.23+2288.65+1094.75+2288.65+1101.53L2288.65+1109.82C2288.65+1116.6+2283.13+1122.12+2276.35+1122.12ZM2268.06+1093.34C2263.55+1093.34+2259.88+1097.01+2259.88+1101.53L2259.88+1109.82C2259.88+1114.34+2263.55+1118.01+2268.06+1118.01L2276.35+1118.01C2280.86+1118.01+2284.53+1114.34+2284.53+1109.82L2284.53+1101.53C2284.53+1097.01+2280.86+1093.34+2276.35+1093.34L2268.06+1093.34Z" opacity="1" fill="#472b29"/>
<path d="M2314.97+1120.06L2306.68+1120.06C2301.05+1120.06+2296.44+1115.45+2296.44+1109.81L2296.44+1101.52C2296.44+1095.89+2301.04+1091.28+2306.68+1091.28L2314.97+1091.28C2320.6+1091.28+2325.21+1095.89+2325.21+1101.52L2325.21+1109.81C2325.21+1115.45+2320.6+1120.06+2314.97+1120.06Z" opacity="1" fill="#e5e3d0"/>
<path d="M2314.97+1122.12L2306.68+1122.12C2299.9+1122.12+2294.38+1116.6+2294.38+1109.82L2294.38+1101.53C2294.38+1094.75+2299.9+1089.23+2306.68+1089.23L2314.97+1089.23C2321.75+1089.23+2327.27+1094.75+2327.27+1101.53L2327.27+1109.82C2327.27+1116.6+2321.75+1122.12+2314.97+1122.12ZM2306.68+1093.34C2302.17+1093.34+2298.5+1097.01+2298.5+1101.53L2298.5+1109.82C2298.5+1114.34+2302.17+1118.01+2306.68+1118.01L2314.97+1118.01C2319.48+1118.01+2323.15+1114.34+2323.15+1109.82L2323.15+1101.53C2323.15+1097.01+2319.48+1093.34+2314.97+1093.34L2306.68+1093.34Z" opacity="1" fill="#472b29"/>
<path d="M2121.86+1155.66L2113.57+1155.66C2107.94+1155.66+2103.33+1151.05+2103.33+1145.42L2103.33+1137.13C2103.33+1131.5+2107.93+1126.88+2113.57+1126.88L2121.86+1126.88C2127.49+1126.88+2132.1+1131.49+2132.1+1137.13L2132.1+1145.42C2132.1+1151.05+2127.5+1155.66+2121.86+1155.66Z" opacity="1" fill="#e5e3d0"/>
<path d="M2121.87+1157.72L2113.58+1157.72C2106.79+1157.72+2101.28+1152.21+2101.28+1145.42L2101.28+1137.13C2101.28+1130.35+2106.79+1124.83+2113.58+1124.83L2121.87+1124.83C2128.65+1124.83+2134.17+1130.35+2134.17+1137.13L2134.17+1145.42C2134.16+1152.21+2128.64+1157.72+2121.87+1157.72ZM2113.57+1128.95C2109.06+1128.95+2105.39+1132.62+2105.39+1137.13L2105.39+1145.42C2105.39+1149.94+2109.06+1153.61+2113.57+1153.61L2121.86+1153.61C2126.37+1153.61+2130.04+1149.94+2130.04+1145.42L2130.04+1137.13C2130.04+1132.62+2126.37+1128.95+2121.86+1128.95L2113.57+1128.95Z" opacity="1" fill="#472b29"/>
<path d="M2160.48+1155.66L2152.19+1155.66C2146.56+1155.66+2141.95+1151.05+2141.95+1145.42L2141.95+1137.13C2141.95+1131.5+2146.56+1126.88+2152.19+1126.88L2160.48+1126.88C2166.11+1126.88+2170.73+1131.49+2170.73+1137.13L2170.73+1145.42C2170.73+1151.05+2166.11+1155.66+2160.48+1155.66Z" opacity="1" fill="#e5e3d0"/>
<path d="M2160.48+1157.72L2152.19+1157.72C2145.41+1157.72+2139.89+1152.21+2139.89+1145.42L2139.89+1137.13C2139.89+1130.35+2145.41+1124.83+2152.19+1124.83L2160.48+1124.83C2167.27+1124.83+2172.78+1130.35+2172.78+1137.13L2172.78+1145.42C2172.78+1152.21+2167.27+1157.72+2160.48+1157.72ZM2152.19+1128.95C2147.68+1128.95+2144.01+1132.62+2144.01+1137.13L2144.01+1145.42C2144.01+1149.94+2147.68+1153.61+2152.19+1153.61L2160.48+1153.61C2164.99+1153.61+2168.66+1149.94+2168.66+1145.42L2168.66+1137.13C2168.66+1132.62+2164.99+1128.95+2160.48+1128.95L2152.19+1128.95Z" opacity="1" fill="#472b29"/>
<path d="M2199.11+1155.66L2190.82+1155.66C2185.19+1155.66+2180.57+1151.05+2180.57+1145.42L2180.57+1137.13C2180.57+1131.5+2185.18+1126.88+2190.82+1126.88L2199.11+1126.88C2204.74+1126.88+2209.35+1131.49+2209.35+1137.13L2209.35+1145.42C2209.35+1151.05+2204.74+1155.66+2199.11+1155.66Z" opacity="1" fill="#e5e3d0"/>
<path d="M2199.11+1157.72L2190.82+1157.72C2184.03+1157.72+2178.52+1152.21+2178.52+1145.42L2178.52+1137.13C2178.52+1130.35+2184.03+1124.83+2190.82+1124.83L2199.11+1124.83C2205.89+1124.83+2211.41+1130.35+2211.41+1137.13L2211.41+1145.42C2211.41+1152.21+2205.89+1157.72+2199.11+1157.72ZM2190.82+1128.95C2186.31+1128.95+2182.64+1132.62+2182.64+1137.13L2182.64+1145.42C2182.64+1149.94+2186.31+1153.61+2190.82+1153.61L2199.11+1153.61C2203.62+1153.61+2207.29+1149.94+2207.29+1145.42L2207.29+1137.13C2207.29+1132.62+2203.62+1128.95+2199.11+1128.95L2190.82+1128.95Z" opacity="1" fill="#472b29"/>
<path d="M2237.73+1155.66L2229.44+1155.66C2223.81+1155.66+2219.2+1151.05+2219.2+1145.42L2219.2+1137.13C2219.2+1131.5+2223.8+1126.88+2229.44+1126.88L2237.73+1126.88C2243.36+1126.88+2247.97+1131.49+2247.97+1137.13L2247.97+1145.42C2247.97+1151.05+2243.36+1155.66+2237.73+1155.66Z" opacity="1" fill="#e5e3d0"/>
<path d="M2237.73+1157.72L2229.44+1157.72C2222.66+1157.72+2217.14+1152.21+2217.14+1145.42L2217.14+1137.13C2217.14+1130.35+2222.66+1124.83+2229.44+1124.83L2237.73+1124.83C2244.51+1124.83+2250.03+1130.35+2250.03+1137.13L2250.03+1145.42C2250.02+1152.21+2244.51+1157.72+2237.73+1157.72ZM2229.44+1128.95C2224.93+1128.95+2221.26+1132.62+2221.26+1137.13L2221.26+1145.42C2221.26+1149.94+2224.93+1153.61+2229.44+1153.61L2237.73+1153.61C2242.24+1153.61+2245.91+1149.94+2245.91+1145.42L2245.91+1137.13C2245.91+1132.62+2242.24+1128.95+2237.73+1128.95L2229.44+1128.95Z" opacity="1" fill="#472b29"/>
<path d="M2276.35+1155.66L2268.06+1155.66C2262.43+1155.66+2257.81+1151.05+2257.81+1145.42L2257.81+1137.13C2257.81+1131.5+2262.42+1126.88+2268.06+1126.88L2276.35+1126.88C2281.98+1126.88+2286.59+1131.49+2286.59+1137.13L2286.59+1145.42C2286.59+1151.05+2281.98+1155.66+2276.35+1155.66Z" opacity="1" fill="#e5e3d0"/>
<path d="M2276.35+1157.72L2268.06+1157.72C2261.28+1157.72+2255.76+1152.21+2255.76+1145.42L2255.76+1137.13C2255.76+1130.35+2261.28+1124.83+2268.06+1124.83L2276.35+1124.83C2283.14+1124.83+2288.65+1130.35+2288.65+1137.13L2288.65+1145.42C2288.65+1152.21+2283.13+1157.72+2276.35+1157.72ZM2268.06+1128.95C2263.55+1128.95+2259.88+1132.62+2259.88+1137.13L2259.88+1145.42C2259.88+1149.94+2263.55+1153.61+2268.06+1153.61L2276.35+1153.61C2280.86+1153.61+2284.53+1149.94+2284.53+1145.42L2284.53+1137.13C2284.53+1132.62+2280.86+1128.95+2276.35+1128.95L2268.06+1128.95Z" opacity="1" fill="#472b29"/>
<path d="M2314.97+1155.66L2306.68+1155.66C2301.05+1155.66+2296.44+1151.05+2296.44+1145.42L2296.44+1137.13C2296.44+1131.5+2301.04+1126.88+2306.68+1126.88L2314.97+1126.88C2320.6+1126.88+2325.21+1131.49+2325.21+1137.13L2325.21+1145.42C2325.21+1151.05+2320.6+1155.66+2314.97+1155.66Z" opacity="1" fill="#e5e3d0"/>
<path d="M2314.97+1157.72L2306.68+1157.72C2299.9+1157.72+2294.38+1152.21+2294.38+1145.42L2294.38+1137.13C2294.38+1130.35+2299.9+1124.83+2306.68+1124.83L2314.97+1124.83C2321.75+1124.83+2327.27+1130.35+2327.27+1137.13L2327.27+1145.42C2327.27+1152.21+2321.75+1157.72+2314.97+1157.72ZM2306.68+1128.95C2302.17+1128.95+2298.5+1132.62+2298.5+1137.13L2298.5+1145.42C2298.5+1149.94+2302.17+1153.61+2306.68+1153.61L2314.97+1153.61C2319.48+1153.61+2323.15+1149.94+2323.15+1145.42L2323.15+1137.13C2323.15+1132.62+2319.48+1128.95+2314.97+1128.95L2306.68+1128.95ZM2153.72+1076.84C2153.05+1076.84+2152.37+1076.62+2151.79+1076.18C2131.82+1060.84+2132.32+1045.11+2134.41+1037.09C2138.26+1022.26+2152.2+1011.39+2162.91+1009.8C2177.27+1007.71+2185.73+1012.7+2192.56+1016.74C2198.73+1020.38+2203.2+1023.02+2210.48+1020.2C2220.73+1016.25+2230.48+1003.64+2228.36+990.152C2226.23+976.447+2212.75+966.145+2197+966.145C2196.95+966.145+2196.88+966.145+2196.87+966.145C2195.13+966.145+2193.71+964.734+2193.7+962.994C2193.7+961.197+2195.28+959.868+2197+959.818C2215.84+959.818+2232+972.416+2234.62+989.178C2237.21+1005.77+2225.29+1021.27+2212.76+1026.11C2202.61+1030.02+2195.86+1026.04+2189.34+1022.19C2182.75+1018.3+2175.94+1014.29+2163.83+1016.07C2155.08+1017.36+2143.63+1026.76+2140.53+1038.68C2137.57+1050.07+2142.8+1061.3+2155.65+1071.17C2157.03+1072.23+2157.29+1074.22+2156.23+1075.61C2155.61+1076.41+2154.67+1076.84+2153.72+1076.84Z" opacity="1" fill="#472b29"/>
<path d="M2128.9+1247.67C2140.77+1247.67+2151.05+1247.67+2151.21+1247.67C2164.5+1247.67+2175.28+1237.12+2175.28+1224.11C2175.28+1212.75+2167.08+1203.28+2156.15+1201.04C2156.28+1200.05+2156.36+1199.04+2156.36+1198.02C2156.36+1184.54+2145.2+1173.61+2131.43+1173.61C2123.3+1173.61+2116.09+1177.44+2111.55+1183.33C2110.38+1168.33+2096.69+1156.76+2080.67+1158.67C2068.95+1160.08+2059.26+1168.94+2057.11+1180.29C2056.42+1183.94+2056.49+1187.47+2057.18+1190.79C2054.04+1187.48+2049.57+1185.39+2044.59+1185.39C2035.48+1185.39+2028.03+1192.34+2027.45+1201.11C2023.31+1200.21+2018.81+1200.28+2014.06+1202.02C2005+1205.35+1998.55+1213.7+1998.17+1223.16C1997.63+1236.61+2008.61+1247.67+2022.23+1247.67C2023.26+1247.67+2026.9+1247.67+2027.73+1247.67L2077.72+1247.67M2088.08+1247.67L2090.34+1247.67" opacity="1" fill="#fdfcef"/>
<path d="M2151.2+1250.83L2128.9+1250.83C2127.15+1250.83+2125.73+1249.42+2125.73+1247.67C2125.73+1245.92+2127.15+1244.51+2128.9+1244.51L2151.2+1244.51C2162.73+1244.51+2172.11+1235.36+2172.11+1224.11C2172.11+1214.5+2165.13+1206.11+2155.52+1204.15C2153.9+1203.81+2152.81+1202.3+2153.01+1200.66C2153.12+1199.79+2153.19+1198.92+2153.19+1198.02C2153.19+1186.3+2143.43+1176.78+2131.42+1176.78C2124.55+1176.78+2118.21+1179.87+2114.04+1185.27C2113.24+1186.31+2111.88+1186.73+2110.63+1186.37C2109.37+1185.99+2108.48+1184.89+2108.38+1183.58C2107.88+1177.16+2104.82+1171.33+2099.76+1167.18C2094.54+1162.91+2087.89+1161+2081.04+1161.82C2070.67+1163.05+2062.11+1170.9+2060.21+1180.9C2059.62+1184+2059.64+1187.11+2060.27+1190.15C2060.56+1191.54+2059.89+1192.94+2058.64+1193.6C2057.39+1194.25+2055.86+1194+2054.88+1192.97C2052.18+1190.13+2048.52+1188.56+2044.58+1188.56C2037.22+1188.56+2031.08+1194.18+2030.6+1201.33C2030.54+1202.26+2030.08+1203.1+2029.35+1203.65C2028.62+1204.2+2027.69+1204.41+2026.78+1204.21C2022.75+1203.34+2018.95+1203.6+2015.16+1205C2007.21+1207.91+2001.66+1215.27+2001.33+1223.3C2001.11+1228.81+2003.11+1234.05+2006.97+1238.06C2010.96+1242.22+2016.39+1244.52+2022.23+1244.52L2077.73+1244.52C2079.48+1244.52+2080.89+1245.94+2080.89+1247.68C2080.89+1249.43+2079.48+1250.85+2077.73+1250.85L2022.23+1250.85C2014.76+1250.85+2007.53+1247.79+2002.41+1242.45C1997.35+1237.19+1994.73+1230.29+1995.02+1223.06C1995.44+1212.5+2002.65+1202.86+2012.98+1199.06C2016.83+1197.66+2020.8+1197.16+2024.83+1197.52C2027+1188.73+2035.1+1182.25+2044.59+1182.25C2047.69+1182.25+2050.74+1182.96+2053.49+1184.27C2053.55+1182.76+2053.72+1181.24+2054.01+1179.72C2056.41+1167.04+2067.23+1157.11+2080.31+1155.55C2088.88+1154.5+2097.23+1156.92+2103.79+1162.31C2108.5+1166.16+2111.84+1171.18+2113.53+1176.8C2118.52+1172.71+2124.78+1170.46+2131.44+1170.46C2146.94+1170.46+2159.54+1182.83+2159.54+1198.03C2159.54+1198.24+2159.54+1198.45+2159.53+1198.67C2170.65+1202.16+2178.46+1212.46+2178.46+1224.12C2178.44+1238.84+2166.22+1250.83+2151.2+1250.83ZM2090.34+1250.83L2088.08+1250.83C2086.33+1250.83+2084.91+1249.42+2084.91+1247.67C2084.91+1245.92+2086.33+1244.51+2088.08+1244.51L2090.34+1244.51C2092.09+1244.51+2093.51+1245.92+2093.51+1247.67C2093.51+1249.42+2092.09+1250.83+2090.34+1250.83Z" opacity="1" fill="#472b29"/>
<path d="M2140.44+1214.26C2140.33+1214.26+2140.22+1214.25+2140.1+1214.22C2139.24+1214.03+2138.71+1213.18+2138.9+1212.33C2139.13+1211.29+2139.49+1210.27+2139.97+1209.31C2143.78+1201.59+2154.29+1198.72+2163.43+1202.97C2164.22+1203.33+2164.57+1204.27+2164.2+1205.06C2163.84+1205.86+2162.89+1206.21+2162.1+1205.83C2154.53+1202.33+2145.87+1204.52+2142.81+1210.71C2142.44+1211.45+2142.16+1212.22+2141.99+1213.02C2141.82+1213.75+2141.16+1214.26+2140.44+1214.26ZM2107.93+1250.83L2100.95+1250.83C2099.21+1250.83+2097.79+1249.42+2097.79+1247.67C2097.79+1245.92+2099.21+1244.51+2100.95+1244.51L2107.93+1244.51C2109.68+1244.51+2111.1+1245.92+2111.1+1247.67C2111.1+1249.42+2109.68+1250.83+2107.93+1250.83Z" opacity="1" fill="#472b29"/>
</g>
<g id="Untitled" vectornator:layerName="Untitled">
<path d="M2544.62+265.593C2534.92+333.666+2540.33+430.672+2466.61+447.198C2389.85+464.405+2319.1+368.097+2239.5+333.988C2184.03+310.219+2120.19+315.023+2072.75+278.427C2022.8+239.897+2004.05+183.668+1977.09+131.556C1940.73+61.3065+1872.23-9.79758+1888.22-78.1579C1904.7-148.566+1974.45-208.49+2057.51-212.133C2139.49-215.728+2203.72-127.928+2284.44-95.5313C2342.59-72.1922+2413.53-91.1265+2460.23-50.5052C2507.1-9.73576+2500.99+51.6316+2515.33+105.311C2529.92+159.956+2552.1+213.141+2544.62+265.593Z" fill-rule="evenodd" fill="#d6f3ff" opacity="1"/>
</g>
</svg>
